<mxfile host="app.diagrams.net" modified="2024-03-21T12:35:21.176Z" agent="Mozilla/5.0 (Windows NT 10.0; Win64; x64; rv:104.0) Gecko/20100101 Firefox/104.0" etag="3e0d9JKv_GeSxwWZZDmb" version="24.0.7" type="device">
  <diagram name="Page-1" id="VbZu66z8gNNWK6XH1VaD">
    <mxGraphModel dx="-892" dy="-247" grid="1" gridSize="10" guides="1" tooltips="1" connect="1" arrows="1" fold="1" page="1" pageScale="1" pageWidth="850" pageHeight="1100" math="0" shadow="0">
      <root>
        <mxCell id="0" />
        <mxCell id="1" parent="0" />
        <mxCell id="BzDGwhldSfUl_Vcu2XNE-1" style="edgeStyle=orthogonalEdgeStyle;rounded=0;orthogonalLoop=1;jettySize=auto;html=1;exitX=0.5;exitY=1;exitDx=0;exitDy=0;entryX=0.5;entryY=0;entryDx=0;entryDy=0;" edge="1" parent="1" source="BzDGwhldSfUl_Vcu2XNE-2">
          <mxGeometry relative="1" as="geometry">
            <mxPoint x="2660" y="1200" as="targetPoint" />
          </mxGeometry>
        </mxCell>
        <mxCell id="BzDGwhldSfUl_Vcu2XNE-2" value="&lt;b&gt;INIT&lt;/b&gt;: Initialize local variables and setup" style="rounded=0;whiteSpace=wrap;html=1;" vertex="1" parent="1">
          <mxGeometry x="2600" y="1120" width="120" height="40" as="geometry" />
        </mxCell>
        <mxCell id="BzDGwhldSfUl_Vcu2XNE-3" style="edgeStyle=orthogonalEdgeStyle;rounded=0;orthogonalLoop=1;jettySize=auto;html=1;exitX=1;exitY=0.25;exitDx=0;exitDy=0;entryX=0;entryY=0.25;entryDx=0;entryDy=0;" edge="1" parent="1" source="BzDGwhldSfUl_Vcu2XNE-7" target="BzDGwhldSfUl_Vcu2XNE-9">
          <mxGeometry relative="1" as="geometry" />
        </mxCell>
        <mxCell id="BzDGwhldSfUl_Vcu2XNE-4" value="&lt;div style=&quot;font-size: 10px;&quot;&gt;&lt;font style=&quot;font-size: 10px;&quot;&gt;&lt;i&gt;(Receive &lt;br&gt;&lt;/i&gt;&lt;/font&gt;&lt;/div&gt;&lt;div style=&quot;font-size: 10px;&quot;&gt;&lt;font style=&quot;font-size: 10px;&quot;&gt;&lt;i&gt;SUBMIT_DATA&lt;/i&gt;&lt;/font&gt;&lt;/div&gt;&lt;div style=&quot;font-size: 10px;&quot;&gt;&lt;font style=&quot;font-size: 10px;&quot;&gt;&lt;i&gt;from Worker with&lt;/i&gt;&lt;/font&gt;&lt;/div&gt;&lt;div style=&quot;font-size: 10px;&quot;&gt;&lt;font style=&quot;font-size: 10px;&quot;&gt;&lt;i&gt;encrypted data)&lt;br&gt;&lt;/i&gt;&lt;/font&gt;&lt;/div&gt;" style="edgeLabel;html=1;align=center;verticalAlign=middle;resizable=0;points=[];" vertex="1" connectable="0" parent="BzDGwhldSfUl_Vcu2XNE-3">
          <mxGeometry x="-0.2364" y="-2" relative="1" as="geometry">
            <mxPoint x="14" y="-2" as="offset" />
          </mxGeometry>
        </mxCell>
        <mxCell id="BzDGwhldSfUl_Vcu2XNE-5" style="edgeStyle=orthogonalEdgeStyle;rounded=0;orthogonalLoop=1;jettySize=auto;html=1;exitX=0.25;exitY=1;exitDx=0;exitDy=0;entryX=0.25;entryY=0;entryDx=0;entryDy=0;" edge="1" parent="1" source="BzDGwhldSfUl_Vcu2XNE-7" target="BzDGwhldSfUl_Vcu2XNE-13">
          <mxGeometry relative="1" as="geometry" />
        </mxCell>
        <mxCell id="BzDGwhldSfUl_Vcu2XNE-6" value="&lt;div style=&quot;font-size: 10px;&quot;&gt;&lt;font style=&quot;font-size: 10px;&quot;&gt;&lt;i&gt;(Receive QUERY_DATA&lt;/i&gt;&lt;/font&gt;&lt;/div&gt;&lt;div style=&quot;font-size: 10px;&quot;&gt;&lt;font style=&quot;font-size: 10px;&quot;&gt;&lt;i&gt;request from Worker&lt;/i&gt;&lt;/font&gt;&lt;/div&gt;&lt;div style=&quot;font-size: 10px;&quot;&gt;&lt;font style=&quot;font-size: 10px;&quot;&gt;&lt;i&gt;or Requester)&lt;br&gt;&lt;/i&gt;&lt;/font&gt;&lt;/div&gt;" style="edgeLabel;html=1;align=center;verticalAlign=middle;resizable=0;points=[];" vertex="1" connectable="0" parent="BzDGwhldSfUl_Vcu2XNE-5">
          <mxGeometry x="0.0435" y="-1" relative="1" as="geometry">
            <mxPoint x="-4" y="-4" as="offset" />
          </mxGeometry>
        </mxCell>
        <mxCell id="BzDGwhldSfUl_Vcu2XNE-7" value="&lt;b&gt;WORKING: &lt;/b&gt;Await message from any client" style="rounded=0;whiteSpace=wrap;html=1;" vertex="1" parent="1">
          <mxGeometry x="2600" y="1200" width="120" height="60" as="geometry" />
        </mxCell>
        <mxCell id="BzDGwhldSfUl_Vcu2XNE-8" style="edgeStyle=orthogonalEdgeStyle;rounded=0;orthogonalLoop=1;jettySize=auto;html=1;exitX=0.5;exitY=1;exitDx=0;exitDy=0;entryX=0.5;entryY=0;entryDx=0;entryDy=0;" edge="1" parent="1" source="BzDGwhldSfUl_Vcu2XNE-9" target="BzDGwhldSfUl_Vcu2XNE-11">
          <mxGeometry relative="1" as="geometry" />
        </mxCell>
        <mxCell id="BzDGwhldSfUl_Vcu2XNE-9" value="Generate unique hash and store submission" style="rounded=0;whiteSpace=wrap;html=1;" vertex="1" parent="1">
          <mxGeometry x="2840" y="1200" width="120" height="60" as="geometry" />
        </mxCell>
        <mxCell id="BzDGwhldSfUl_Vcu2XNE-10" style="edgeStyle=orthogonalEdgeStyle;rounded=0;orthogonalLoop=1;jettySize=auto;html=1;exitX=0;exitY=0.5;exitDx=0;exitDy=0;entryX=1;entryY=0.75;entryDx=0;entryDy=0;" edge="1" parent="1" source="BzDGwhldSfUl_Vcu2XNE-11" target="BzDGwhldSfUl_Vcu2XNE-7">
          <mxGeometry relative="1" as="geometry">
            <Array as="points">
              <mxPoint x="2820" y="1300" />
              <mxPoint x="2820" y="1245" />
            </Array>
          </mxGeometry>
        </mxCell>
        <mxCell id="BzDGwhldSfUl_Vcu2XNE-11" value="Send ACK for data" style="rounded=0;whiteSpace=wrap;html=1;" vertex="1" parent="1">
          <mxGeometry x="2840" y="1280" width="120" height="40" as="geometry" />
        </mxCell>
        <mxCell id="BzDGwhldSfUl_Vcu2XNE-12" style="edgeStyle=orthogonalEdgeStyle;rounded=0;orthogonalLoop=1;jettySize=auto;html=1;exitX=0.75;exitY=0;exitDx=0;exitDy=0;entryX=0.75;entryY=1;entryDx=0;entryDy=0;" edge="1" parent="1" source="BzDGwhldSfUl_Vcu2XNE-13" target="BzDGwhldSfUl_Vcu2XNE-7">
          <mxGeometry relative="1" as="geometry" />
        </mxCell>
        <mxCell id="BzDGwhldSfUl_Vcu2XNE-13" value="Send DATA with encrypted data" style="rounded=0;whiteSpace=wrap;html=1;" vertex="1" parent="1">
          <mxGeometry x="2600" y="1320" width="120" height="40" as="geometry" />
        </mxCell>
      </root>
    </mxGraphModel>
  </diagram>
</mxfile>
